<svg width="102" height="102" viewBox="0 0 102 102" fill="none" xmlns="http://www.w3.org/2000/svg">
<path fill-rule="evenodd" clip-rule="evenodd" d="M22.7872 69.4468C22.7872 54.4646 34.9327 42.3191 49.9149 42.3191C64.8971 42.3191 77.0425 54.4646 77.0425 69.4468C77.0425 84.4289 64.8971 96.5744 49.9149 96.5744C34.9327 96.5744 22.7872 84.4289 22.7872 69.4468ZM49.9149 47.7446C37.9291 47.7446 28.2128 57.461 28.2128 69.4468C28.2128 81.4325 37.9291 91.1489 49.9149 91.1489C61.9006 91.1489 71.617 81.4325 71.617 69.4468C71.617 57.461 61.9006 47.7446 49.9149 47.7446Z" fill="white" stroke="#F3954F"/>
<path fill-rule="evenodd" clip-rule="evenodd" d="M32.5532 24.9574C47.5354 24.9574 59.6809 37.1029 59.6809 52.0851C59.6809 67.0672 47.5354 79.2127 32.5532 79.2127C17.5711 79.2127 5.42559 67.0672 5.42559 52.0851C5.42559 37.1029 17.5711 24.9574 32.5532 24.9574ZM54.2554 52.0851C54.2554 40.0993 44.539 30.3829 32.5532 30.3829C20.5675 30.3829 10.8511 40.0993 10.8511 52.0851C10.8511 64.0708 20.5675 73.7872 32.5532 73.7872C44.539 73.7872 54.2554 64.0708 54.2554 52.0851Z" fill="white" stroke="#F3954F"/>
<path fill-rule="evenodd" clip-rule="evenodd" d="M69.4468 24.9574C84.429 24.9574 96.5745 37.1029 96.5745 52.0851C96.5745 67.0672 84.429 79.2127 69.4468 79.2127C54.4646 79.2127 42.3191 67.0672 42.3191 52.0851C42.3191 37.1029 54.4646 24.9574 69.4468 24.9574ZM91.1489 52.0851C91.1489 40.0993 81.4326 30.3829 69.4468 30.3829C57.4611 30.3829 47.7447 40.0993 47.7447 52.0851C47.7447 64.0708 57.461 73.7872 69.4468 73.7872C81.4326 73.7872 91.1489 64.0708 91.1489 52.0851Z" fill="white" stroke="#F3954F"/>
<path fill-rule="evenodd" clip-rule="evenodd" d="M22.7872 32.5532C22.7872 17.571 34.9327 5.42554 49.9149 5.42554C64.8971 5.42554 77.0425 17.571 77.0425 32.5532C77.0425 47.5354 64.8971 59.6809 49.9149 59.6809C34.9327 59.6809 22.7872 47.5354 22.7872 32.5532ZM49.9149 10.8511C37.9291 10.8511 28.2128 20.5674 28.2128 32.5532C28.2128 44.5389 37.9291 54.2553 49.9149 54.2553C61.9006 54.2553 71.617 44.5389 71.617 32.5532C71.617 20.5674 61.9006 10.8511 49.9149 10.8511Z" fill="white" stroke="#F3954F"/>
</svg>
